# xmcd
#
# Track frame offsets: 
#        150
#        21367
#        41745
#        60536
#        77479
#        98863
#        118216
#        139129
#        160574
#        178914
#        191936
#
# Disc length: 2871 seconds
#
# Revision: 0
# Processed by: cddbd v1.5.2PL0 Copyright (c) Steve Scherf et al.
# Submitted via: ExactAudioCopyFreeDBPlugin 1.0
#
DISCID=970b350b
DTITLE=Mephis Drawls - Rooted In The Bone
DYEAR=2014
DGENRE=Country
TTITLE0=Please Don't Leave Me Now
TTITLE1=Skin Like A Cage
TTITLE2=The Law
TTITLE3=Anna
TTITLE4=Liar
TTITLE5=Starting Gate
TTITLE6=Shadow In The Room
TTITLE7=Ride Alone
TTITLE8=Shoot 'Em  Down
TTITLE9=Where'd You Go My Love
TTITLE10=Wait For You to Heal
EXTD=
EXTT0=
EXTT1=
EXTT2=
EXTT3=
EXTT4=
EXTT5=
EXTT6=
EXTT7=
EXTT8=
EXTT9=
EXTT10=
PLAYORDER=
